<?xml version="1.0" encoding="UTF-8" standalone="no"?>
<!DOCTYPE svg PUBLIC "-//W3C//DTD SVG 1.1//EN"
 "http://www.w3.org/Graphics/SVG/1.1/DTD/svg11.dtd">
<!-- Generated by graphviz version 2.36.0 (20140111.2315)
 -->
<!-- Title: controllers_diagram Pages: 1 -->
<svg width="563pt" height="572pt"
 viewBox="0.00 0.00 563.00 572.00" xmlns="http://www.w3.org/2000/svg" xmlns:xlink="http://www.w3.org/1999/xlink">
<g id="graph0" class="graph" transform="scale(1 1) rotate(0) translate(4 568)">
<title>controllers_diagram</title>
<polygon fill="none" stroke="none" points="-4,4 -4,-568 559,-568 559,4 -4,4"/>
<!-- _diagram_info -->
<g id="node1" class="node"><title>_diagram_info</title>
<text text-anchor="start" x="141" y="-462.6" font-family="Times,serif" font-size="13.00">Controllers diagram</text>
<text text-anchor="start" x="141" y="-448.6" font-family="Times,serif" font-size="13.00">Date: Feb 24 2016 &#45; 21:26</text>
<text text-anchor="start" x="141" y="-434.6" font-family="Times,serif" font-size="13.00">Migration version: 20160223191838</text>
<text text-anchor="start" x="141" y="-420.6" font-family="Times,serif" font-size="13.00">Generated by RailRoady 1.4.2</text>
<text text-anchor="start" x="141" y="-406.6" font-family="Times,serif" font-size="13.00">http://railroady.prestonlee.com</text>
</g>
<!-- StoriesController -->
<g id="node2" class="node"><title>StoriesController</title>
<path fill="none" stroke="black" d="M392,-380.5C392,-380.5 508,-380.5 508,-380.5 514,-380.5 520,-386.5 520,-392.5 520,-392.5 520,-551.5 520,-551.5 520,-557.5 514,-563.5 508,-563.5 508,-563.5 392,-563.5 392,-563.5 386,-563.5 380,-557.5 380,-551.5 380,-551.5 380,-392.5 380,-392.5 380,-386.5 386,-380.5 392,-380.5"/>
<text text-anchor="middle" x="450" y="-548.3" font-family="Times,serif" font-size="14.00">StoriesController</text>
<polyline fill="none" stroke="black" points="380,-540.5 520,-540.5 "/>
<text text-anchor="start" x="388" y="-525.3" font-family="Times,serif" font-size="14.00">create</text>
<text text-anchor="start" x="388" y="-510.3" font-family="Times,serif" font-size="14.00">index</text>
<text text-anchor="start" x="388" y="-495.3" font-family="Times,serif" font-size="14.00">new</text>
<text text-anchor="start" x="388" y="-480.3" font-family="Times,serif" font-size="14.00">read</text>
<text text-anchor="start" x="388" y="-465.3" font-family="Times,serif" font-size="14.00">show</text>
<text text-anchor="start" x="388" y="-450.3" font-family="Times,serif" font-size="14.00">show_stories_acquired</text>
<text text-anchor="start" x="388" y="-435.3" font-family="Times,serif" font-size="14.00">story_params</text>
<polyline fill="none" stroke="black" points="380,-427.5 520,-427.5 "/>
<polyline fill="none" stroke="black" points="380,-403.5 520,-403.5 "/>
<text text-anchor="start" x="388" y="-388.3" font-family="Times,serif" font-size="14.00">_layout</text>
</g>
<!-- RequestFriendshipsController -->
<g id="node3" class="node"><title>RequestFriendshipsController</title>
<path fill="none" stroke="black" d="M164,-95.5C164,-95.5 319,-95.5 319,-95.5 325,-95.5 331,-101.5 331,-107.5 331,-107.5 331,-356.5 331,-356.5 331,-362.5 325,-368.5 319,-368.5 319,-368.5 164,-368.5 164,-368.5 158,-368.5 152,-362.5 152,-356.5 152,-356.5 152,-107.5 152,-107.5 152,-101.5 158,-95.5 164,-95.5"/>
<text text-anchor="middle" x="241.5" y="-353.3" font-family="Times,serif" font-size="14.00">RequestFriendshipsController</text>
<polyline fill="none" stroke="black" points="152,-345.5 331,-345.5 "/>
<text text-anchor="start" x="160" y="-330.3" font-family="Times,serif" font-size="14.00">create</text>
<text text-anchor="start" x="160" y="-315.3" font-family="Times,serif" font-size="14.00">creates</text>
<text text-anchor="start" x="160" y="-300.3" font-family="Times,serif" font-size="14.00">deciding_request</text>
<text text-anchor="start" x="160" y="-285.3" font-family="Times,serif" font-size="14.00">destroy</text>
<text text-anchor="start" x="160" y="-270.3" font-family="Times,serif" font-size="14.00">edit</text>
<text text-anchor="start" x="160" y="-255.3" font-family="Times,serif" font-size="14.00">index</text>
<text text-anchor="start" x="160" y="-240.3" font-family="Times,serif" font-size="14.00">new</text>
<text text-anchor="start" x="160" y="-225.3" font-family="Times,serif" font-size="14.00">send_request</text>
<text text-anchor="start" x="160" y="-210.3" font-family="Times,serif" font-size="14.00">show</text>
<text text-anchor="start" x="160" y="-195.3" font-family="Times,serif" font-size="14.00">show_pending</text>
<text text-anchor="start" x="160" y="-180.3" font-family="Times,serif" font-size="14.00">update</text>
<polyline fill="none" stroke="black" points="152,-172.5 331,-172.5 "/>
<polyline fill="none" stroke="black" points="152,-148.5 331,-148.5 "/>
<text text-anchor="start" x="160" y="-133.3" font-family="Times,serif" font-size="14.00">_layout</text>
<text text-anchor="start" x="160" y="-118.3" font-family="Times,serif" font-size="14.00">request_friendship_params</text>
<text text-anchor="start" x="160" y="-103.3" font-family="Times,serif" font-size="14.00">set_request_friendship</text>
</g>
<!-- WelcomeController -->
<g id="node4" class="node"><title>WelcomeController</title>
<path fill="none" stroke="black" d="M12,-247.5C12,-247.5 113,-247.5 113,-247.5 119,-247.5 125,-253.5 125,-259.5 125,-259.5 125,-358.5 125,-358.5 125,-364.5 119,-370.5 113,-370.5 113,-370.5 12,-370.5 12,-370.5 6,-370.5 0,-364.5 0,-358.5 0,-358.5 0,-259.5 0,-259.5 0,-253.5 6,-247.5 12,-247.5"/>
<text text-anchor="middle" x="62.5" y="-355.3" font-family="Times,serif" font-size="14.00">WelcomeController</text>
<polyline fill="none" stroke="black" points="0,-347.5 125,-347.5 "/>
<text text-anchor="start" x="8" y="-332.3" font-family="Times,serif" font-size="14.00">index</text>
<text text-anchor="start" x="8" y="-317.3" font-family="Times,serif" font-size="14.00">index2</text>
<text text-anchor="start" x="8" y="-302.3" font-family="Times,serif" font-size="14.00">popup</text>
<polyline fill="none" stroke="black" points="0,-294.5 125,-294.5 "/>
<polyline fill="none" stroke="black" points="0,-270.5 125,-270.5 "/>
<text text-anchor="start" x="8" y="-255.3" font-family="Times,serif" font-size="14.00">_layout</text>
</g>
<!-- ApplicationController -->
<g id="node5" class="node"><title>ApplicationController</title>
<path fill="none" stroke="black" d="M373,-0.5C373,-0.5 543,-0.5 543,-0.5 549,-0.5 555,-6.5 555,-12.5 555,-12.5 555,-80.5 555,-80.5 555,-86.5 549,-92.5 543,-92.5 543,-92.5 373,-92.5 373,-92.5 367,-92.5 361,-86.5 361,-80.5 361,-80.5 361,-12.5 361,-12.5 361,-6.5 367,-0.5 373,-0.5"/>
<text text-anchor="middle" x="458" y="-77.3" font-family="Times,serif" font-size="14.00">ApplicationController</text>
<polyline fill="none" stroke="black" points="361,-69.5 555,-69.5 "/>
<text text-anchor="start" x="369" y="-54.3" font-family="Times,serif" font-size="14.00">respond_modal_with</text>
<polyline fill="none" stroke="black" points="361,-46.5 555,-46.5 "/>
<text text-anchor="start" x="369" y="-31.3" font-family="Times,serif" font-size="14.00">configure_permitted_parameters</text>
<polyline fill="none" stroke="black" points="361,-23.5 555,-23.5 "/>
<text text-anchor="start" x="369" y="-8.3" font-family="Times,serif" font-size="14.00">_layout</text>
</g>
<!-- CategoriesController -->
<g id="node6" class="node"><title>CategoriesController</title>
<path fill="none" stroke="black" d="M373,-133.5C373,-133.5 479,-133.5 479,-133.5 485,-133.5 491,-139.5 491,-145.5 491,-145.5 491,-334.5 491,-334.5 491,-340.5 485,-346.5 479,-346.5 479,-346.5 373,-346.5 373,-346.5 367,-346.5 361,-340.5 361,-334.5 361,-334.5 361,-145.5 361,-145.5 361,-139.5 367,-133.5 373,-133.5"/>
<text text-anchor="middle" x="426" y="-331.3" font-family="Times,serif" font-size="14.00">CategoriesController</text>
<polyline fill="none" stroke="black" points="361,-323.5 491,-323.5 "/>
<text text-anchor="start" x="369" y="-308.3" font-family="Times,serif" font-size="14.00">create</text>
<text text-anchor="start" x="369" y="-293.3" font-family="Times,serif" font-size="14.00">destroy</text>
<text text-anchor="start" x="369" y="-278.3" font-family="Times,serif" font-size="14.00">edit</text>
<text text-anchor="start" x="369" y="-263.3" font-family="Times,serif" font-size="14.00">index</text>
<text text-anchor="start" x="369" y="-248.3" font-family="Times,serif" font-size="14.00">new</text>
<text text-anchor="start" x="369" y="-233.3" font-family="Times,serif" font-size="14.00">show</text>
<text text-anchor="start" x="369" y="-218.3" font-family="Times,serif" font-size="14.00">update</text>
<polyline fill="none" stroke="black" points="361,-210.5 491,-210.5 "/>
<polyline fill="none" stroke="black" points="361,-186.5 491,-186.5 "/>
<text text-anchor="start" x="369" y="-171.3" font-family="Times,serif" font-size="14.00">_layout</text>
<text text-anchor="start" x="369" y="-156.3" font-family="Times,serif" font-size="14.00">category_params</text>
<text text-anchor="start" x="369" y="-141.3" font-family="Times,serif" font-size="14.00">set_category</text>
</g>
</g>
</svg>
