<?xml version="1.0" encoding="UTF-8" standalone="no"?>
<!DOCTYPE svg PUBLIC "-//W3C//DTD SVG 1.1//EN"
 "http://www.w3.org/Graphics/SVG/1.1/DTD/svg11.dtd">
<!-- Generated by graphviz version 2.36.0 (20140111.2315)
 -->
<!-- Title: models_diagram Pages: 1 -->
<svg width="1406pt" height="410pt"
 viewBox="0.00 0.00 1406.00 410.00" xmlns="http://www.w3.org/2000/svg" xmlns:xlink="http://www.w3.org/1999/xlink">
<g id="graph0" class="graph" transform="scale(1 1) rotate(0) translate(4 406)">
<title>models_diagram</title>
<polygon fill="none" stroke="none" points="-4,4 -4,-406 1402,-406 1402,4 -4,4"/>
<!-- _diagram_info -->
<g id="node1" class="node"><title>_diagram_info</title>
<text text-anchor="start" x="7" y="-387.6" font-family="Times,serif" font-size="13.00">Models diagram</text>
<text text-anchor="start" x="7" y="-373.6" font-family="Times,serif" font-size="13.00">Date: Feb 24 2016 &#45; 21:26</text>
<text text-anchor="start" x="7" y="-359.6" font-family="Times,serif" font-size="13.00">Migration version: 20160223191838</text>
<text text-anchor="start" x="7" y="-345.6" font-family="Times,serif" font-size="13.00">Generated by RailRoady 1.4.2</text>
<text text-anchor="start" x="7" y="-331.6" font-family="Times,serif" font-size="13.00">http://railroady.prestonlee.com</text>
</g>
<!-- Option -->
<g id="node2" class="node"><title>Option</title>
<ellipse fill="none" stroke="black" cx="266" cy="-363" rx="35.1455" ry="18"/>
<text text-anchor="middle" x="266" y="-359.3" font-family="Times,serif" font-size="14.00">Option</text>
</g>
<!-- Category -->
<g id="node3" class="node"><title>Category</title>
<ellipse fill="none" stroke="black" cx="362" cy="-363" rx="42.3456" ry="18"/>
<text text-anchor="middle" x="362" y="-359.3" font-family="Times,serif" font-size="14.00">Category</text>
</g>
<!-- StoryCategory -->
<g id="node7" class="node"><title>StoryCategory</title>
<ellipse fill="none" stroke="black" cx="337" cy="-166" rx="61.6163" ry="18"/>
<text text-anchor="middle" x="337" y="-162.3" font-family="Times,serif" font-size="14.00">StoryCategory</text>
</g>
<!-- Category&#45;&gt;StoryCategory -->
<g id="edge1" class="edge"><title>Category&#45;&gt;StoryCategory</title>
<path fill="none" stroke="#48f0d7" d="M358.756,-336.698C354.057,-300.045 345.389,-232.431 340.533,-194.555"/>
<ellipse fill="none" stroke="#48f0d7" cx="359.273" cy="-340.728" rx="4.00001" ry="4.00001"/>
<polygon fill="#48f0d7" stroke="#48f0d7" points="340.485,-194.185 343.677,-183.694 339.849,-189.226 339.214,-184.266 339.214,-184.266 339.214,-184.266 339.849,-189.226 334.75,-184.838 340.485,-194.185 340.485,-194.185"/>
</g>
<!-- Story -->
<g id="node13" class="node"><title>Story</title>
<ellipse fill="none" stroke="black" cx="456" cy="-254" rx="29.3479" ry="18"/>
<text text-anchor="middle" x="456" y="-250.3" font-family="Times,serif" font-size="14.00">Story</text>
</g>
<!-- Category&#45;&gt;Story -->
<g id="edge2" class="edge"><title>Category&#45;&gt;Story</title>
<path fill="none" stroke="#6bdf05" d="M383.077,-338.008C398.843,-320.061 420.272,-295.669 435.818,-277.973"/>
<polygon fill="#6bdf05" stroke="#6bdf05" points="382.877,-338.236 372.896,-342.779 379.577,-341.993 376.277,-345.749 376.277,-345.749 376.277,-345.749 379.577,-341.993 379.657,-348.719 382.877,-338.236 382.877,-338.236"/>
<polygon fill="#6bdf05" stroke="#6bdf05" points="435.906,-277.873 445.886,-273.331 439.206,-274.117 442.506,-270.361 442.506,-270.361 442.506,-270.361 439.206,-274.117 439.125,-267.391 435.906,-277.873 435.906,-277.873"/>
</g>
<!-- DiscountUserGroup -->
<g id="node4" class="node"><title>DiscountUserGroup</title>
<ellipse fill="none" stroke="black" cx="810" cy="-18" rx="81.3646" ry="18"/>
<text text-anchor="middle" x="810" y="-14.3" font-family="Times,serif" font-size="14.00">DiscountUserGroup</text>
</g>
<!-- Profile -->
<g id="node5" class="node"><title>Profile</title>
<ellipse fill="none" stroke="black" cx="451" cy="-166" rx="34.1708" ry="18"/>
<text text-anchor="middle" x="451" y="-162.3" font-family="Times,serif" font-size="14.00">Profile</text>
</g>
<!-- Profile&#45;&gt;Story -->
<g id="edge3" class="edge"><title>Profile&#45;&gt;Story</title>
<path fill="none" stroke="#458658" d="M477.314,-186.553C481.663,-191.104 485.548,-196.305 488,-202 492.476,-212.396 487.441,-223.121 480.139,-232.038"/>
<ellipse fill="none" stroke="#458658" cx="474.095" cy="-183.512" rx="4.00002" ry="4.00002"/>
<polygon fill="#458658" stroke="#458658" points="480.139,-232.039 470.029,-236.287 476.73,-235.697 473.321,-239.355 473.321,-239.355 473.321,-239.355 476.73,-235.697 476.614,-242.422 480.139,-232.039 480.139,-232.039"/>
</g>
<!-- Friendship -->
<g id="node6" class="node"><title>Friendship</title>
<ellipse fill="none" stroke="black" cx="745" cy="-166" rx="48.1437" ry="18"/>
<text text-anchor="middle" x="745" y="-162.3" font-family="Times,serif" font-size="14.00">Friendship</text>
</g>
<!-- Administrator -->
<g id="node8" class="node"><title>Administrator</title>
<ellipse fill="none" stroke="black" cx="893" cy="-363" rx="60.1672" ry="18"/>
<text text-anchor="middle" x="893" y="-359.3" font-family="Times,serif" font-size="14.00">Administrator</text>
</g>
<!-- User -->
<g id="node15" class="node"><title>User</title>
<ellipse fill="none" stroke="black" cx="905" cy="-254" rx="26.949" ry="18"/>
<text text-anchor="middle" x="905" y="-250.3" font-family="Times,serif" font-size="14.00">User</text>
</g>
<!-- Administrator&#45;&gt;User -->
<g id="edge4" class="edge"><title>Administrator&#45;&gt;User</title>
<path fill="none" stroke="#6038e7" d="M895.829,-336.772C897.662,-320.434 900.047,-299.161 901.926,-282.408"/>
<ellipse fill="none" stroke="#6038e7" cx="895.374" cy="-340.834" rx="4.00001" ry="4.00001"/>
<polygon fill="#6038e7" stroke="#6038e7" points="901.962,-282.086 907.549,-272.65 902.519,-277.118 903.077,-272.149 903.077,-272.149 903.077,-272.149 902.519,-277.118 898.605,-271.647 901.962,-282.086 901.962,-282.086"/>
</g>
<!-- Addition -->
<g id="node9" class="node"><title>Addition</title>
<ellipse fill="none" stroke="black" cx="1256" cy="-363" rx="42.3701" ry="18"/>
<text text-anchor="middle" x="1256" y="-359.3" font-family="Times,serif" font-size="14.00">Addition</text>
</g>
<!-- Report -->
<g id="node10" class="node"><title>Report</title>
<ellipse fill="none" stroke="black" cx="846" cy="-166" rx="34.1708" ry="18"/>
<text text-anchor="middle" x="846" y="-162.3" font-family="Times,serif" font-size="14.00">Report</text>
</g>
<!-- Chapter -->
<g id="node11" class="node"><title>Chapter</title>
<ellipse fill="none" stroke="black" cx="542" cy="-166" rx="38.0212" ry="18"/>
<text text-anchor="middle" x="542" y="-162.3" font-family="Times,serif" font-size="14.00">Chapter</text>
</g>
<!-- UserGroup -->
<g id="node12" class="node"><title>UserGroup</title>
<ellipse fill="none" stroke="black" cx="948" cy="-166" rx="50.0684" ry="18"/>
<text text-anchor="middle" x="948" y="-162.3" font-family="Times,serif" font-size="14.00">UserGroup</text>
</g>
<!-- UserGroup&#45;&gt;DiscountUserGroup -->
<g id="edge5" class="edge"><title>UserGroup&#45;&gt;DiscountUserGroup</title>
<path fill="none" stroke="#36fd60" d="M904.075,-150.771C864.588,-137.539 811.901,-118.613 806,-110 793.273,-91.4215 795.943,-65.3534 800.818,-45.8771"/>
<ellipse fill="none" stroke="#36fd60" cx="907.984" cy="-152.072" rx="4.00001" ry="4.00001"/>
<polygon fill="#36fd60" stroke="#36fd60" points="800.863,-45.7192 807.914,-37.3212 802.224,-40.9079 803.584,-36.0966 803.584,-36.0966 803.584,-36.0966 802.224,-40.9079 799.254,-34.872 800.863,-45.7192 800.863,-45.7192"/>
</g>
<!-- Discount -->
<g id="node19" class="node"><title>Discount</title>
<ellipse fill="none" stroke="black" cx="857" cy="-92" rx="42.3701" ry="18"/>
<text text-anchor="middle" x="857" y="-88.3" font-family="Times,serif" font-size="14.00">Discount</text>
</g>
<!-- UserGroup&#45;&gt;Discount -->
<g id="edge6" class="edge"><title>UserGroup&#45;&gt;Discount</title>
<path fill="none" stroke="#d14237" d="M920.213,-143.015C908.715,-133.918 895.429,-123.405 884.013,-114.373"/>
<polygon fill="#d14237" stroke="#d14237" points="920.412,-143.172 925.462,-152.906 924.333,-146.275 928.254,-149.377 928.254,-149.377 928.254,-149.377 924.333,-146.275 931.047,-145.848 920.412,-143.172 920.412,-143.172"/>
<polygon fill="#d14237" stroke="#d14237" points="883.926,-114.304 878.876,-104.57 880.005,-111.201 876.084,-108.099 876.084,-108.099 876.084,-108.099 880.005,-111.201 873.291,-111.628 883.926,-114.304 883.926,-114.304"/>
</g>
<!-- ActorUserGroup -->
<g id="node20" class="node"><title>ActorUserGroup</title>
<ellipse fill="none" stroke="black" cx="987" cy="-92" rx="69.3156" ry="18"/>
<text text-anchor="middle" x="987" y="-88.3" font-family="Times,serif" font-size="14.00">ActorUserGroup</text>
</g>
<!-- UserGroup&#45;&gt;ActorUserGroup -->
<g id="edge7" class="edge"><title>UserGroup&#45;&gt;ActorUserGroup</title>
<path fill="none" stroke="#675b56" d="M961.079,-140.855C964.856,-133.882 968.995,-126.24 972.835,-119.151"/>
<ellipse fill="none" stroke="#675b56" cx="959.148" cy="-144.42" rx="4.00002" ry="4.00002"/>
<polygon fill="#675b56" stroke="#675b56" points="973.061,-118.733 981.781,-112.084 975.442,-114.337 977.824,-109.941 977.824,-109.941 977.824,-109.941 975.442,-114.337 973.867,-107.797 973.061,-118.733 973.061,-118.733"/>
</g>
<!-- Actor -->
<g id="node21" class="node"><title>Actor</title>
<ellipse fill="none" stroke="black" cx="1105" cy="-92" rx="30.3206" ry="18"/>
<text text-anchor="middle" x="1105" y="-88.3" font-family="Times,serif" font-size="14.00">Actor</text>
</g>
<!-- UserGroup&#45;&gt;Actor -->
<g id="edge8" class="edge"><title>UserGroup&#45;&gt;Actor</title>
<path fill="none" stroke="#b4ceab" d="M986.807,-147.203C1013.11,-135.142 1047.47,-119.382 1072.36,-107.967"/>
<polygon fill="#b4ceab" stroke="#b4ceab" points="986.62,-147.289 975.655,-147.367 982.075,-149.373 977.53,-151.457 977.53,-151.457 977.53,-151.457 982.075,-149.373 979.406,-155.548 986.62,-147.289 986.62,-147.289"/>
<polygon fill="#b4ceab" stroke="#b4ceab" points="1072.64,-107.838 1083.61,-107.76 1077.19,-105.754 1081.73,-103.67 1081.73,-103.67 1081.73,-103.67 1077.19,-105.754 1079.86,-99.5795 1072.64,-107.838 1072.64,-107.838"/>
</g>
<!-- Story&#45;&gt;Profile -->
<g id="edge12" class="edge"><title>Story&#45;&gt;Profile</title>
<path fill="none" stroke="#519105" d="M424.648,-236.708C417.96,-231.663 411.78,-225.434 408,-218 402.002,-206.204 409.926,-194.777 420.537,-185.741"/>
<polygon fill="#519105" stroke="#519105" points="424.939,-236.902 430.745,-246.204 429.093,-239.683 433.248,-242.465 433.248,-242.465 433.248,-242.465 429.093,-239.683 435.752,-238.725 424.939,-236.902 424.939,-236.902"/>
<polygon fill="#519105" stroke="#519105" points="420.626,-185.674 431.307,-183.191 424.602,-182.643 428.579,-179.612 428.579,-179.612 428.579,-179.612 424.602,-182.643 425.851,-176.033 420.626,-185.674 420.626,-185.674"/>
<text text-anchor="middle" x="446" y="-206.3" font-family="Times,serif" font-size="14.00">readerProfiles</text>
</g>
<!-- Story&#45;&gt;StoryCategory -->
<g id="edge10" class="edge"><title>Story&#45;&gt;StoryCategory</title>
<path fill="none" stroke="#dfb1b3" d="M428.841,-236.517C419.845,-230.847 409.869,-224.329 401,-218 388.53,-209.101 375.21,-198.651 363.969,-189.535"/>
<ellipse fill="none" stroke="#dfb1b3" cx="432.413" cy="-238.746" rx="4.00002" ry="4.00002"/>
<polygon fill="#dfb1b3" stroke="#dfb1b3" points="363.933,-189.506 359.042,-179.691 360.063,-186.34 356.193,-183.174 356.193,-183.174 356.193,-183.174 360.063,-186.34 353.344,-186.657 363.933,-189.506 363.933,-189.506"/>
</g>
<!-- Story&#45;&gt;Chapter -->
<g id="edge9" class="edge"><title>Story&#45;&gt;Chapter</title>
<path fill="none" stroke="#bb1982" d="M481.902,-235.118C488.728,-229.926 495.889,-224.022 502,-218 510.055,-210.062 517.95,-200.497 524.57,-191.805"/>
<ellipse fill="none" stroke="#bb1982" cx="478.452" cy="-237.672" rx="4.00002" ry="4.00002"/>
<polygon fill="#bb1982" stroke="#bb1982" points="524.771,-191.533 534.339,-186.176 527.747,-187.515 530.723,-183.497 530.723,-183.497 530.723,-183.497 527.747,-187.515 527.107,-180.819 524.771,-191.533 524.771,-191.533"/>
</g>
<!-- Reading -->
<g id="node14" class="node"><title>Reading</title>
<ellipse fill="none" stroke="black" cx="639" cy="-166" rx="39.9464" ry="18"/>
<text text-anchor="middle" x="639" y="-162.3" font-family="Times,serif" font-size="14.00">Reading</text>
</g>
<!-- Story&#45;&gt;Reading -->
<g id="edge11" class="edge"><title>Story&#45;&gt;Reading</title>
<path fill="none" stroke="#33e9e8" d="M486.382,-238.722C518.511,-223.623 569.164,-199.819 603.207,-183.821"/>
<ellipse fill="none" stroke="#33e9e8" cx="482.427" cy="-240.581" rx="4.00002" ry="4.00002"/>
<polygon fill="#33e9e8" stroke="#33e9e8" points="603.289,-183.782 614.254,-183.602 607.815,-181.655 612.34,-179.529 612.34,-179.529 612.34,-179.529 607.815,-181.655 610.426,-175.456 603.289,-183.782 603.289,-183.782"/>
</g>
<!-- User&#45;&gt;Profile -->
<g id="edge16" class="edge"><title>User&#45;&gt;Profile</title>
<path fill="none" stroke="#e28a31" d="M869.984,-249.521C798.52,-241.895 631.123,-221.338 495,-184 491.53,-183.048 487.955,-181.922 484.413,-180.71"/>
<ellipse fill="none" stroke="#e28a31" cx="874.237" cy="-249.968" rx="4" ry="4"/>
<ellipse fill="#e28a31" stroke="#e28a31" cx="480.53" cy="-179.31" rx="4.00001" ry="4.00001"/>
</g>
<!-- User&#45;&gt;Friendship -->
<g id="edge17" class="edge"><title>User&#45;&gt;Friendship</title>
<path fill="none" stroke="#4f1544" d="M869.294,-252.855C838.237,-250.875 793.812,-243.322 765,-218 757.837,-211.705 753.217,-202.517 750.247,-193.669"/>
<ellipse fill="none" stroke="#4f1544" cx="873.68" cy="-253.075" rx="4" ry="4"/>
<polygon fill="#4f1544" stroke="#4f1544" points="750.235,-193.627 751.881,-182.785 748.891,-188.811 747.547,-183.995 747.547,-183.995 747.547,-183.995 748.891,-188.811 743.213,-185.205 750.235,-193.627 750.235,-193.627"/>
</g>
<!-- User&#45;&gt;Friendship -->
<g id="edge19" class="edge"><title>User&#45;&gt;Friendship</title>
<path fill="none" stroke="#0971e3" d="M869.871,-249.477C843.432,-245.395 807.366,-236.649 781,-218 771.842,-211.523 764.205,-201.946 758.355,-192.836"/>
<ellipse fill="none" stroke="#0971e3" cx="874.132" cy="-250.082" rx="4.00001" ry="4.00001"/>
<polygon fill="#0971e3" stroke="#0971e3" points="758.221,-192.609 756.981,-181.714 755.666,-188.311 753.112,-184.013 753.112,-184.013 753.112,-184.013 755.666,-188.311 749.244,-186.312 758.221,-192.609 758.221,-192.609"/>
<text text-anchor="middle" x="834" y="-206.3" font-family="Times,serif" font-size="14.00">inverse_friendships</text>
</g>
<!-- User&#45;&gt;Report -->
<g id="edge15" class="edge"><title>User&#45;&gt;Report</title>
<path fill="none" stroke="#174ffd" d="M901.423,-227.78C899.353,-219.094 896.101,-209.638 891,-202 887.085,-196.138 881.866,-190.829 876.371,-186.219"/>
<ellipse fill="none" stroke="#174ffd" cx="902.262" cy="-231.871" rx="4.00001" ry="4.00001"/>
<polygon fill="#174ffd" stroke="#174ffd" points="876.176,-186.069 870.982,-176.411 872.209,-183.025 868.242,-179.981 868.242,-179.981 868.242,-179.981 872.209,-183.025 865.503,-183.551 876.176,-186.069 876.176,-186.069"/>
</g>
<!-- User&#45;&gt;UserGroup -->
<g id="edge22" class="edge"><title>User&#45;&gt;UserGroup</title>
<path fill="none" stroke="#a332ba" d="M917.875,-227.249C923.313,-216.374 929.632,-203.736 935.075,-192.85"/>
<polygon fill="#a332ba" stroke="#a332ba" points="917.763,-227.474 909.266,-234.406 915.527,-231.946 913.291,-236.418 913.291,-236.418 913.291,-236.418 915.527,-231.946 917.316,-238.431 917.763,-227.474 917.763,-227.474"/>
<polygon fill="#a332ba" stroke="#a332ba" points="935.116,-192.768 943.613,-185.837 937.352,-188.296 939.588,-183.824 939.588,-183.824 939.588,-183.824 937.352,-188.296 935.563,-181.812 935.116,-192.768 935.116,-192.768"/>
</g>
<!-- User&#45;&gt;User -->
<g id="edge18" class="edge"><title>User&#45;&gt;User</title>
<path fill="none" stroke="#60d6b1" d="M941.943,-257.632C946.789,-257.01 950,-255.799 950,-254 950,-252.201 946.789,-250.99 941.943,-250.368"/>
<polygon fill="#60d6b1" stroke="#60d6b1" points="941.784,-257.64 931.58,-253.621 936.789,-257.878 931.795,-258.116 931.795,-258.116 931.795,-258.116 936.789,-257.878 932.009,-262.611 941.784,-257.64 941.784,-257.64"/>
<polygon fill="#60d6b1" stroke="#60d6b1" points="941.784,-250.36 932.009,-245.389 936.789,-250.122 931.795,-249.884 931.795,-249.884 931.795,-249.884 936.789,-250.122 931.58,-254.379 941.784,-250.36 941.784,-250.36"/>
<text text-anchor="middle" x="969" y="-250.3" font-family="Times,serif" font-size="14.00">friends</text>
</g>
<!-- User&#45;&gt;User -->
<g id="edge20" class="edge"><title>User&#45;&gt;User</title>
<path fill="none" stroke="#7ee7a8" d="M940.748,-261.753C963.959,-263.434 988,-260.85 988,-254 988,-247.15 963.959,-244.566 940.748,-246.247"/>
<polygon fill="#7ee7a8" stroke="#7ee7a8" points="940.528,-261.731 931.03,-256.25 935.553,-261.229 930.578,-260.727 930.578,-260.727 930.578,-260.727 935.553,-261.229 930.126,-265.204 940.528,-261.731 940.528,-261.731"/>
<polygon fill="#7ee7a8" stroke="#7ee7a8" points="940.528,-246.269 930.126,-242.796 935.553,-246.771 930.578,-247.273 930.578,-247.273 930.578,-247.273 935.553,-246.771 931.03,-251.75 940.528,-246.269 940.528,-246.269"/>
<text text-anchor="middle" x="1030" y="-250.3" font-family="Times,serif" font-size="14.00">inverse_friends</text>
</g>
<!-- User&#45;&gt;ActorUserGroup -->
<g id="edge21" class="edge"><title>User&#45;&gt;ActorUserGroup</title>
<path fill="none" stroke="#43589f" d="M936.23,-241.439C960.397,-230.639 992.165,-211.945 1007,-184 1017.72,-163.803 1010.5,-138.165 1001.89,-119.252"/>
<ellipse fill="none" stroke="#43589f" cx="932.359" cy="-243.096" rx="4.00002" ry="4.00002"/>
<polygon fill="#43589f" stroke="#43589f" points="1001.77,-119.008 1001.38,-108.049 999.558,-114.524 997.346,-110.04 997.346,-110.04 997.346,-110.04 999.558,-114.524 993.31,-112.03 1001.77,-119.008 1001.77,-119.008"/>
</g>
<!-- Mailboxer::Message -->
<g id="node22" class="node"><title>Mailboxer::Message</title>
<ellipse fill="none" stroke="black" cx="1138" cy="-166" rx="83.2649" ry="18"/>
<text text-anchor="middle" x="1138" y="-162.3" font-family="Times,serif" font-size="14.00">Mailboxer::Message</text>
</g>
<!-- User&#45;&gt;Mailboxer::Message -->
<g id="edge13" class="edge"><title>User&#45;&gt;Mailboxer::Message</title>
<path fill="none" stroke="#653f8f" d="M939.106,-246.396C966.806,-240.503 1006.61,-230.825 1040,-218 1061.19,-209.859 1083.74,-198.343 1101.86,-188.314"/>
<ellipse fill="none" stroke="#653f8f" cx="934.834" cy="-247.286" rx="4.00001" ry="4.00001"/>
<polygon fill="#653f8f" stroke="#653f8f" points="1102.18,-188.132 1113.1,-187.153 1106.54,-185.681 1110.9,-183.23 1110.9,-183.23 1110.9,-183.23 1106.54,-185.681 1108.69,-179.308 1102.18,-188.132 1102.18,-188.132"/>
<text text-anchor="middle" x="1099" y="-206.3" font-family="Times,serif" font-size="14.00">messages</text>
</g>
<!-- Mailboxer::Receipt -->
<g id="node23" class="node"><title>Mailboxer::Receipt</title>
<ellipse fill="none" stroke="black" cx="1319" cy="-166" rx="78.9404" ry="18"/>
<text text-anchor="middle" x="1319" y="-162.3" font-family="Times,serif" font-size="14.00">Mailboxer::Receipt</text>
</g>
<!-- User&#45;&gt;Mailboxer::Receipt -->
<g id="edge14" class="edge"><title>User&#45;&gt;Mailboxer::Receipt</title>
<path fill="none" stroke="#0e9f80" d="M939.831,-248.736C984.063,-243.051 1062.62,-232.053 1129,-218 1174.7,-208.325 1225.81,-194.43 1263.49,-183.586"/>
<ellipse fill="none" stroke="#0e9f80" cx="935.687" cy="-249.263" rx="4.00001" ry="4.00001"/>
<polygon fill="#0e9f80" stroke="#0e9f80" points="1263.66,-183.539 1274.51,-185.08 1268.46,-182.148 1273.26,-180.757 1273.26,-180.757 1273.26,-180.757 1268.46,-182.148 1272.01,-176.435 1263.66,-183.539 1263.66,-183.539"/>
<text text-anchor="middle" x="1213.5" y="-206.3" font-family="Times,serif" font-size="14.00">receipts</text>
</g>
<!-- RequestFriendship -->
<g id="node16" class="node"><title>RequestFriendship</title>
<ellipse fill="none" stroke="black" cx="738" cy="-363" rx="76.5394" ry="18"/>
<text text-anchor="middle" x="738" y="-359.3" font-family="Times,serif" font-size="14.00">RequestFriendship</text>
</g>
<!-- RequestFriendship&#45;&gt;Friendship -->
<g id="edge25" class="edge"><title>RequestFriendship&#45;&gt;Friendship</title>
<path fill="none" stroke="#d7c142" d="M738.908,-336.698C740.247,-299.415 742.735,-230.101 744.08,-192.631"/>
<ellipse fill="none" stroke="#d7c142" cx="738.765" cy="-340.698" rx="4" ry="4"/>
<ellipse fill="#d7c142" stroke="#d7c142" cx="744.237" cy="-188.264" rx="4" ry="4"/>
</g>
<!-- RequestFriendship&#45;&gt;User -->
<g id="edge23" class="edge"><title>RequestFriendship&#45;&gt;User</title>
<path fill="none" stroke="#374c43" d="M741.064,-336.71C744.256,-321.139 750.759,-301.94 764,-290 792.887,-263.951 838.14,-256.585 869.557,-254.846"/>
<ellipse fill="none" stroke="#374c43" cx="740.308" cy="-340.979" rx="4.00001" ry="4.00001"/>
<ellipse fill="#374c43" stroke="#374c43" cx="873.63" cy="-254.674" rx="4" ry="4"/>
<text text-anchor="middle" x="782" y="-294.3" font-family="Times,serif" font-size="14.00">sender</text>
</g>
<!-- RequestFriendship&#45;&gt;User -->
<g id="edge24" class="edge"><title>RequestFriendship&#45;&gt;User</title>
<path fill="none" stroke="#cd9e24" d="M768.809,-341.166C790.52,-326.604 820.355,-306.83 847,-290 857.162,-283.582 868.453,-276.71 878.353,-270.77"/>
<ellipse fill="none" stroke="#cd9e24" cx="765.38" cy="-343.47" rx="4.00002" ry="4.00002"/>
<ellipse fill="#cd9e24" stroke="#cd9e24" cx="881.847" cy="-268.682" rx="4.00002" ry="4.00002"/>
<text text-anchor="middle" x="871" y="-294.3" font-family="Times,serif" font-size="14.00">recipient</text>
</g>
<!-- PremiumUser -->
<g id="node17" class="node"><title>PremiumUser</title>
<ellipse fill="none" stroke="black" cx="1032" cy="-363" rx="60.1672" ry="18"/>
<text text-anchor="middle" x="1032" y="-359.3" font-family="Times,serif" font-size="14.00">PremiumUser</text>
</g>
<!-- PremiumUser&#45;&gt;User -->
<g id="edge26" class="edge"><title>PremiumUser&#45;&gt;User</title>
<path fill="none" stroke="#27f546" d="M1006.54,-340.552C983.997,-321.556 951.316,-294.022 929.168,-275.362"/>
<ellipse fill="none" stroke="#27f546" cx="1009.65" cy="-343.172" rx="4.00002" ry="4.00002"/>
<polygon fill="#27f546" stroke="#27f546" points="928.885,-275.124 924.137,-265.239 925.062,-271.902 921.238,-268.681 921.238,-268.681 921.238,-268.681 925.062,-271.902 918.338,-272.122 928.885,-275.124 928.885,-275.124"/>
</g>
<!-- FreeUser -->
<g id="node18" class="node"><title>FreeUser</title>
<ellipse fill="none" stroke="black" cx="1153" cy="-363" rx="42.3456" ry="18"/>
<text text-anchor="middle" x="1153" y="-359.3" font-family="Times,serif" font-size="14.00">FreeUser</text>
</g>
<!-- FreeUser&#45;&gt;User -->
<g id="edge27" class="edge"><title>FreeUser&#45;&gt;User</title>
<path fill="none" stroke="#bd7788" d="M1127.99,-341.443C1119.73,-335.288 1110.27,-328.885 1101,-324 1047.56,-295.853 980.187,-275.01 939.962,-263.956"/>
<ellipse fill="none" stroke="#bd7788" cx="1131.44" cy="-344.084" rx="4.00002" ry="4.00002"/>
<polygon fill="#bd7788" stroke="#bd7788" points="939.756,-263.9 931.275,-256.949 934.929,-262.597 930.102,-261.293 930.102,-261.293 930.102,-261.293 934.929,-262.597 928.929,-265.638 939.756,-263.9 939.756,-263.9"/>
</g>
<!-- Discount&#45;&gt;DiscountUserGroup -->
<g id="edge28" class="edge"><title>Discount&#45;&gt;DiscountUserGroup</title>
<path fill="none" stroke="#2ce681" d="M841.665,-67.5086C836.863,-60.1512 831.54,-51.9978 826.651,-44.5083"/>
<ellipse fill="none" stroke="#2ce681" cx="843.913" cy="-70.9513" rx="4.00002" ry="4.00002"/>
<polygon fill="#2ce681" stroke="#2ce681" points="826.634,-44.4824 824.936,-33.6488 823.901,-40.2955 821.168,-36.1086 821.168,-36.1086 821.168,-36.1086 823.901,-40.2955 817.4,-38.5685 826.634,-44.4824 826.634,-44.4824"/>
</g>
</g>
</svg>
