<?xml version="1.0" encoding="UTF-8" standalone="no"?>
<!DOCTYPE svg PUBLIC "-//W3C//DTD SVG 1.1//EN"
 "http://www.w3.org/Graphics/SVG/1.1/DTD/svg11.dtd">
<!-- Generated by graphviz version 2.36.0 (20140111.2315)
 -->
<!-- Title: models_diagram Pages: 1 -->
<svg width="2182pt" height="1440pt"
 viewBox="0.00 0.00 2182.00 1440.00" xmlns="http://www.w3.org/2000/svg" xmlns:xlink="http://www.w3.org/1999/xlink">
<g id="graph0" class="graph" transform="scale(1 1) rotate(0) translate(4 1436)">
<title>models_diagram</title>
<polygon fill="none" stroke="none" points="-4,4 -4,-1436 2178,-1436 2178,4 -4,4"/>
<!-- _diagram_info -->
<g id="node1" class="node"><title>_diagram_info</title>
<text text-anchor="start" x="304" y="-1380.6" font-family="Times,serif" font-size="13.00">Models diagram</text>
<text text-anchor="start" x="304" y="-1366.6" font-family="Times,serif" font-size="13.00">Date: Mar 30 2016 &#45; 19:29</text>
<text text-anchor="start" x="304" y="-1352.6" font-family="Times,serif" font-size="13.00">Migration version: 20160311192414</text>
<text text-anchor="start" x="304" y="-1338.6" font-family="Times,serif" font-size="13.00">Generated by RailRoady 1.4.2</text>
<text text-anchor="start" x="304" y="-1324.6" font-family="Times,serif" font-size="13.00">http://railroady.prestonlee.com</text>
</g>
<!-- Option -->
<g id="node2" class="node"><title>Option</title>
<path fill="none" stroke="black" d="M438,-0.5C438,-0.5 658,-0.5 658,-0.5 664,-0.5 670,-6.5 670,-12.5 670,-12.5 670,-109.5 670,-109.5 670,-115.5 664,-121.5 658,-121.5 658,-121.5 438,-121.5 438,-121.5 432,-121.5 426,-115.5 426,-109.5 426,-109.5 426,-12.5 426,-12.5 426,-6.5 432,-0.5 438,-0.5"/>
<text text-anchor="middle" x="548" y="-106.3" font-family="Times,serif" font-size="14.00">Option</text>
<polyline fill="none" stroke="black" points="426,-98.5 670,-98.5 "/>
<text text-anchor="start" x="434" y="-83.3" font-family="Times,serif" font-size="14.00">id :integer</text>
<text text-anchor="start" x="434" y="-68.3" font-family="Times,serif" font-size="14.00">option :character varying</text>
<text text-anchor="start" x="434" y="-53.3" font-family="Times,serif" font-size="14.00">created_at :timestamp without time zone</text>
<text text-anchor="start" x="434" y="-38.3" font-family="Times,serif" font-size="14.00">updated_at :timestamp without time zone</text>
<text text-anchor="start" x="434" y="-23.3" font-family="Times,serif" font-size="14.00">parent_id :integer</text>
<text text-anchor="start" x="434" y="-8.3" font-family="Times,serif" font-size="14.00">child_id :integer</text>
</g>
<!-- Category -->
<g id="node3" class="node"><title>Category</title>
<path fill="none" stroke="black" d="M12,-631C12,-631 262,-631 262,-631 268,-631 274,-637 274,-643 274,-643 274,-785 274,-785 274,-791 268,-797 262,-797 262,-797 12,-797 12,-797 6,-797 0,-791 0,-785 0,-785 0,-643 0,-643 0,-637 6,-631 12,-631"/>
<text text-anchor="middle" x="137" y="-781.8" font-family="Times,serif" font-size="14.00">Category</text>
<polyline fill="none" stroke="black" points="0,-774 274,-774 "/>
<text text-anchor="start" x="8" y="-758.8" font-family="Times,serif" font-size="14.00">id :integer</text>
<text text-anchor="start" x="8" y="-743.8" font-family="Times,serif" font-size="14.00">name :character varying</text>
<text text-anchor="start" x="8" y="-728.8" font-family="Times,serif" font-size="14.00">description :character varying</text>
<text text-anchor="start" x="8" y="-713.8" font-family="Times,serif" font-size="14.00">created_at :timestamp without time zone</text>
<text text-anchor="start" x="8" y="-698.8" font-family="Times,serif" font-size="14.00">updated_at :timestamp without time zone</text>
<text text-anchor="start" x="8" y="-683.8" font-family="Times,serif" font-size="14.00">icon_file_name :character varying</text>
<text text-anchor="start" x="8" y="-668.8" font-family="Times,serif" font-size="14.00">icon_content_type :character varying</text>
<text text-anchor="start" x="8" y="-653.8" font-family="Times,serif" font-size="14.00">icon_file_size :integer</text>
<text text-anchor="start" x="8" y="-638.8" font-family="Times,serif" font-size="14.00">icon_updated_at :timestamp without time zone</text>
</g>
<!-- StoryCategory -->
<g id="node7" class="node"><title>StoryCategory</title>
<path fill="none" stroke="black" d="M120,-182C120,-182 340,-182 340,-182 346,-182 352,-188 352,-194 352,-194 352,-276 352,-276 352,-282 346,-288 340,-288 340,-288 120,-288 120,-288 114,-288 108,-282 108,-276 108,-276 108,-194 108,-194 108,-188 114,-182 120,-182"/>
<text text-anchor="middle" x="230" y="-272.8" font-family="Times,serif" font-size="14.00">StoryCategory</text>
<polyline fill="none" stroke="black" points="108,-265 352,-265 "/>
<text text-anchor="start" x="116" y="-249.8" font-family="Times,serif" font-size="14.00">id :integer</text>
<text text-anchor="start" x="116" y="-234.8" font-family="Times,serif" font-size="14.00">story_id :integer</text>
<text text-anchor="start" x="116" y="-219.8" font-family="Times,serif" font-size="14.00">category_id :integer</text>
<text text-anchor="start" x="116" y="-204.8" font-family="Times,serif" font-size="14.00">created_at :timestamp without time zone</text>
<text text-anchor="start" x="116" y="-189.8" font-family="Times,serif" font-size="14.00">updated_at :timestamp without time zone</text>
</g>
<!-- Category&#45;&gt;StoryCategory -->
<g id="edge1" class="edge"><title>Category&#45;&gt;StoryCategory</title>
<path fill="none" stroke="#e5796b" d="M154.582,-622.821C173.093,-527.879 201.742,-380.938 217.878,-298.173"/>
<ellipse fill="none" stroke="#e5796b" cx="153.806" cy="-626.803" rx="4.00001" ry="4.00001"/>
<polygon fill="#e5796b" stroke="#e5796b" points="217.917,-297.976 224.247,-289.022 218.873,-293.068 219.83,-288.161 219.83,-288.161 219.83,-288.161 218.873,-293.068 215.413,-287.299 217.917,-297.976 217.917,-297.976"/>
</g>
<!-- Story -->
<g id="node13" class="node"><title>Story</title>
<path fill="none" stroke="black" d="M419.5,-335C419.5,-335 676.5,-335 676.5,-335 682.5,-335 688.5,-341 688.5,-347 688.5,-347 688.5,-579 688.5,-579 688.5,-585 682.5,-591 676.5,-591 676.5,-591 419.5,-591 419.5,-591 413.5,-591 407.5,-585 407.5,-579 407.5,-579 407.5,-347 407.5,-347 407.5,-341 413.5,-335 419.5,-335"/>
<text text-anchor="middle" x="548" y="-575.8" font-family="Times,serif" font-size="14.00">Story</text>
<polyline fill="none" stroke="black" points="407.5,-568 688.5,-568 "/>
<text text-anchor="start" x="415.5" y="-552.8" font-family="Times,serif" font-size="14.00">id :integer</text>
<text text-anchor="start" x="415.5" y="-537.8" font-family="Times,serif" font-size="14.00">title :character varying</text>
<text text-anchor="start" x="415.5" y="-522.8" font-family="Times,serif" font-size="14.00">description :character varying</text>
<text text-anchor="start" x="415.5" y="-507.8" font-family="Times,serif" font-size="14.00">language :character varying</text>
<text text-anchor="start" x="415.5" y="-492.8" font-family="Times,serif" font-size="14.00">price :double precision</text>
<text text-anchor="start" x="415.5" y="-477.8" font-family="Times,serif" font-size="14.00">release_date :date</text>
<text text-anchor="start" x="415.5" y="-462.8" font-family="Times,serif" font-size="14.00">published :boolean</text>
<text text-anchor="start" x="415.5" y="-447.8" font-family="Times,serif" font-size="14.00">num_purchased :integer</text>
<text text-anchor="start" x="415.5" y="-432.8" font-family="Times,serif" font-size="14.00">created_at :timestamp without time zone</text>
<text text-anchor="start" x="415.5" y="-417.8" font-family="Times,serif" font-size="14.00">updated_at :timestamp without time zone</text>
<text text-anchor="start" x="415.5" y="-402.8" font-family="Times,serif" font-size="14.00">cover_file_name :character varying</text>
<text text-anchor="start" x="415.5" y="-387.8" font-family="Times,serif" font-size="14.00">cover_content_type :character varying</text>
<text text-anchor="start" x="415.5" y="-372.8" font-family="Times,serif" font-size="14.00">cover_file_size :integer</text>
<text text-anchor="start" x="415.5" y="-357.8" font-family="Times,serif" font-size="14.00">cover_updated_at :timestamp without time zone</text>
<text text-anchor="start" x="415.5" y="-342.8" font-family="Times,serif" font-size="14.00">profile_id :integer</text>
</g>
<!-- Category&#45;&gt;Story -->
<g id="edge2" class="edge"><title>Category&#45;&gt;Story</title>
<path fill="none" stroke="#f5a14f" d="M281.111,-625.692C319.175,-602.631 360.334,-577.696 398.668,-554.471"/>
<polygon fill="#f5a14f" stroke="#f5a14f" points="280.984,-625.769 270.099,-627.102 276.707,-628.36 272.431,-630.951 272.431,-630.951 272.431,-630.951 276.707,-628.36 274.763,-634.799 280.984,-625.769 280.984,-625.769"/>
<polygon fill="#f5a14f" stroke="#f5a14f" points="398.762,-554.414 409.646,-553.082 403.038,-551.824 407.315,-549.233 407.315,-549.233 407.315,-549.233 403.038,-551.824 404.983,-545.384 398.762,-554.414 398.762,-554.414"/>
</g>
<!-- DiscountUserGroup -->
<g id="node4" class="node"><title>DiscountUserGroup</title>
<path fill="none" stroke="black" d="M304,-661C304,-661 524,-661 524,-661 530,-661 536,-667 536,-673 536,-673 536,-755 536,-755 536,-761 530,-767 524,-767 524,-767 304,-767 304,-767 298,-767 292,-761 292,-755 292,-755 292,-673 292,-673 292,-667 298,-661 304,-661"/>
<text text-anchor="middle" x="414" y="-751.8" font-family="Times,serif" font-size="14.00">DiscountUserGroup</text>
<polyline fill="none" stroke="black" points="292,-744 536,-744 "/>
<text text-anchor="start" x="300" y="-728.8" font-family="Times,serif" font-size="14.00">id :integer</text>
<text text-anchor="start" x="300" y="-713.8" font-family="Times,serif" font-size="14.00">user_group_id :integer</text>
<text text-anchor="start" x="300" y="-698.8" font-family="Times,serif" font-size="14.00">discount_id :integer</text>
<text text-anchor="start" x="300" y="-683.8" font-family="Times,serif" font-size="14.00">created_at :timestamp without time zone</text>
<text text-anchor="start" x="300" y="-668.8" font-family="Times,serif" font-size="14.00">updated_at :timestamp without time zone</text>
</g>
<!-- Profile -->
<g id="node5" class="node"><title>Profile</title>
<path fill="none" stroke="black" d="M828,-631C828,-631 1048,-631 1048,-631 1054,-631 1060,-637 1060,-643 1060,-643 1060,-785 1060,-785 1060,-791 1054,-797 1048,-797 1048,-797 828,-797 828,-797 822,-797 816,-791 816,-785 816,-785 816,-643 816,-643 816,-637 822,-631 828,-631"/>
<text text-anchor="middle" x="938" y="-781.8" font-family="Times,serif" font-size="14.00">Profile</text>
<polyline fill="none" stroke="black" points="816,-774 1060,-774 "/>
<text text-anchor="start" x="824" y="-758.8" font-family="Times,serif" font-size="14.00">id :integer</text>
<text text-anchor="start" x="824" y="-743.8" font-family="Times,serif" font-size="14.00">name :character varying</text>
<text text-anchor="start" x="824" y="-728.8" font-family="Times,serif" font-size="14.00">avatar :character varying</text>
<text text-anchor="start" x="824" y="-713.8" font-family="Times,serif" font-size="14.00">description :character varying</text>
<text text-anchor="start" x="824" y="-698.8" font-family="Times,serif" font-size="14.00">signature :character varying</text>
<text text-anchor="start" x="824" y="-683.8" font-family="Times,serif" font-size="14.00">user_id :integer</text>
<text text-anchor="start" x="824" y="-668.8" font-family="Times,serif" font-size="14.00">created_at :timestamp without time zone</text>
<text text-anchor="start" x="824" y="-653.8" font-family="Times,serif" font-size="14.00">updated_at :timestamp without time zone</text>
<text text-anchor="start" x="824" y="-638.8" font-family="Times,serif" font-size="14.00">profile_status :character varying</text>
</g>
<!-- Friendship -->
<g id="node6" class="node"><title>Friendship</title>
<path fill="none" stroke="black" d="M1415,-402.5C1415,-402.5 1635,-402.5 1635,-402.5 1641,-402.5 1647,-408.5 1647,-414.5 1647,-414.5 1647,-511.5 1647,-511.5 1647,-517.5 1641,-523.5 1635,-523.5 1635,-523.5 1415,-523.5 1415,-523.5 1409,-523.5 1403,-517.5 1403,-511.5 1403,-511.5 1403,-414.5 1403,-414.5 1403,-408.5 1409,-402.5 1415,-402.5"/>
<text text-anchor="middle" x="1525" y="-508.3" font-family="Times,serif" font-size="14.00">Friendship</text>
<polyline fill="none" stroke="black" points="1403,-500.5 1647,-500.5 "/>
<text text-anchor="start" x="1411" y="-485.3" font-family="Times,serif" font-size="14.00">id :integer</text>
<text text-anchor="start" x="1411" y="-470.3" font-family="Times,serif" font-size="14.00">user_id :integer</text>
<text text-anchor="start" x="1411" y="-455.3" font-family="Times,serif" font-size="14.00">friend_id :integer</text>
<text text-anchor="start" x="1411" y="-440.3" font-family="Times,serif" font-size="14.00">created_at :timestamp without time zone</text>
<text text-anchor="start" x="1411" y="-425.3" font-family="Times,serif" font-size="14.00">updated_at :timestamp without time zone</text>
<text text-anchor="start" x="1411" y="-410.3" font-family="Times,serif" font-size="14.00">request_friendship_id :integer</text>
</g>
<!-- Profile&#45;&gt;Friendship -->
<g id="edge3" class="edge"><title>Profile&#45;&gt;Friendship</title>
<path fill="none" stroke="#a005b7" d="M1069.26,-630.018C1180.63,-576.028 1302.48,-532.856 1392.79,-503.753"/>
<polygon fill="#a005b7" stroke="#a005b7" points="1069.25,-630.024 1058.29,-630.372 1064.75,-632.22 1060.26,-634.415 1060.26,-634.415 1060.26,-634.415 1064.75,-632.22 1062.24,-638.458 1069.25,-630.024 1069.25,-630.024"/>
<polygon fill="#a005b7" stroke="#a005b7" points="1393.01,-503.682 1403.9,-504.913 1397.77,-502.155 1402.53,-500.628 1402.53,-500.628 1402.53,-500.628 1397.77,-502.155 1401.16,-496.343 1393.01,-503.682 1393.01,-503.682"/>
</g>
<!-- Profile&#45;&gt;Story -->
<g id="edge4" class="edge"><title>Profile&#45;&gt;Story</title>
<path fill="none" stroke="#4ee76d" d="M808.801,-630.511C773.179,-607.768 734.239,-582.906 697.568,-559.494"/>
<ellipse fill="none" stroke="#4ee76d" cx="812.567" cy="-632.916" rx="4.00002" ry="4.00002"/>
<polygon fill="#4ee76d" stroke="#4ee76d" points="697.224,-559.274 691.217,-550.1 693.01,-556.583 688.795,-553.892 688.795,-553.892 688.795,-553.892 693.01,-556.583 686.374,-557.685 697.224,-559.274 697.224,-559.274"/>
</g>
<!-- Comment -->
<g id="node20" class="node"><title>Comment</title>
<ellipse fill="none" stroke="black" cx="762" cy="-235" rx="46.2191" ry="18"/>
<text text-anchor="middle" x="762" y="-231.3" font-family="Times,serif" font-size="14.00">Comment</text>
</g>
<!-- Profile&#45;&gt;Comment -->
<g id="edge5" class="edge"><title>Profile&#45;&gt;Comment</title>
<path fill="none" stroke="#716558" d="M904.856,-623.173C863.977,-512.382 796.828,-330.391 771.803,-262.568"/>
<ellipse fill="none" stroke="#716558" cx="906.26" cy="-626.977" rx="4.00001" ry="4.00001"/>
<polygon fill="#716558" stroke="#716558" points="771.753,-262.432 772.513,-251.493 770.022,-257.741 768.291,-253.051 768.291,-253.051 768.291,-253.051 770.022,-257.741 764.069,-254.608 771.753,-262.432 771.753,-262.432"/>
</g>
<!-- Administrator -->
<g id="node8" class="node"><title>Administrator</title>
<path fill="none" stroke="black" d="M1400,-1318C1400,-1318 1620,-1318 1620,-1318 1626,-1318 1632,-1324 1632,-1330 1632,-1330 1632,-1382 1632,-1382 1632,-1388 1626,-1394 1620,-1394 1620,-1394 1400,-1394 1400,-1394 1394,-1394 1388,-1388 1388,-1382 1388,-1382 1388,-1330 1388,-1330 1388,-1324 1394,-1318 1400,-1318"/>
<text text-anchor="middle" x="1510" y="-1378.8" font-family="Times,serif" font-size="14.00">Administrator</text>
<polyline fill="none" stroke="black" points="1388,-1371 1632,-1371 "/>
<text text-anchor="start" x="1396" y="-1355.8" font-family="Times,serif" font-size="14.00">id :integer</text>
<text text-anchor="start" x="1396" y="-1340.8" font-family="Times,serif" font-size="14.00">created_at :timestamp without time zone</text>
<text text-anchor="start" x="1396" y="-1325.8" font-family="Times,serif" font-size="14.00">updated_at :timestamp without time zone</text>
</g>
<!-- User -->
<g id="node14" class="node"><title>User</title>
<path fill="none" stroke="black" d="M1198.5,-851C1198.5,-851 1487.5,-851 1487.5,-851 1493.5,-851 1499.5,-857 1499.5,-863 1499.5,-863 1499.5,-1215 1499.5,-1215 1499.5,-1221 1493.5,-1227 1487.5,-1227 1487.5,-1227 1198.5,-1227 1198.5,-1227 1192.5,-1227 1186.5,-1221 1186.5,-1215 1186.5,-1215 1186.5,-863 1186.5,-863 1186.5,-857 1192.5,-851 1198.5,-851"/>
<text text-anchor="middle" x="1343" y="-1211.8" font-family="Times,serif" font-size="14.00">User</text>
<polyline fill="none" stroke="black" points="1186.5,-1204 1499.5,-1204 "/>
<text text-anchor="start" x="1194.5" y="-1188.8" font-family="Times,serif" font-size="14.00">id :integer</text>
<text text-anchor="start" x="1194.5" y="-1173.8" font-family="Times,serif" font-size="14.00">email :character varying</text>
<text text-anchor="start" x="1194.5" y="-1158.8" font-family="Times,serif" font-size="14.00">encrypted_password :character varying</text>
<text text-anchor="start" x="1194.5" y="-1143.8" font-family="Times,serif" font-size="14.00">reset_password_token :character varying</text>
<text text-anchor="start" x="1194.5" y="-1128.8" font-family="Times,serif" font-size="14.00">reset_password_sent_at :timestamp without time zone</text>
<text text-anchor="start" x="1194.5" y="-1113.8" font-family="Times,serif" font-size="14.00">remember_created_at :timestamp without time zone</text>
<text text-anchor="start" x="1194.5" y="-1098.8" font-family="Times,serif" font-size="14.00">sign_in_count :integer</text>
<text text-anchor="start" x="1194.5" y="-1083.8" font-family="Times,serif" font-size="14.00">current_sign_in_at :timestamp without time zone</text>
<text text-anchor="start" x="1194.5" y="-1068.8" font-family="Times,serif" font-size="14.00">last_sign_in_at :timestamp without time zone</text>
<text text-anchor="start" x="1194.5" y="-1053.8" font-family="Times,serif" font-size="14.00">current_sign_in_ip :inet</text>
<text text-anchor="start" x="1194.5" y="-1038.8" font-family="Times,serif" font-size="14.00">last_sign_in_ip :inet</text>
<text text-anchor="start" x="1194.5" y="-1023.8" font-family="Times,serif" font-size="14.00">created_at :timestamp without time zone</text>
<text text-anchor="start" x="1194.5" y="-1008.8" font-family="Times,serif" font-size="14.00">updated_at :timestamp without time zone</text>
<text text-anchor="start" x="1194.5" y="-993.8" font-family="Times,serif" font-size="14.00">username :character varying</text>
<text text-anchor="start" x="1194.5" y="-978.8" font-family="Times,serif" font-size="14.00">name :character varying</text>
<text text-anchor="start" x="1194.5" y="-963.8" font-family="Times,serif" font-size="14.00">surname1 :character varying</text>
<text text-anchor="start" x="1194.5" y="-948.8" font-family="Times,serif" font-size="14.00">surname2 :character varying</text>
<text text-anchor="start" x="1194.5" y="-933.8" font-family="Times,serif" font-size="14.00">phone :character varying</text>
<text text-anchor="start" x="1194.5" y="-918.8" font-family="Times,serif" font-size="14.00">birthday :date</text>
<text text-anchor="start" x="1194.5" y="-903.8" font-family="Times,serif" font-size="14.00">sku :character varying</text>
<text text-anchor="start" x="1194.5" y="-888.8" font-family="Times,serif" font-size="14.00">role_id :integer</text>
<text text-anchor="start" x="1194.5" y="-873.8" font-family="Times,serif" font-size="14.00">role_type :character varying</text>
<text text-anchor="start" x="1194.5" y="-858.8" font-family="Times,serif" font-size="14.00">banned_until :timestamp without time zone</text>
</g>
<!-- Administrator&#45;&gt;User -->
<g id="edge6" class="edge"><title>Administrator&#45;&gt;User</title>
<path fill="none" stroke="#b64c7f" d="M1486.56,-1310.78C1475.65,-1290.21 1461.85,-1264.17 1447.13,-1236.41"/>
<ellipse fill="none" stroke="#b64c7f" cx="1488.48" cy="-1314.41" rx="4.00002" ry="4.00002"/>
<polygon fill="#b64c7f" stroke="#b64c7f" points="1447,-1236.18 1446.3,-1225.23 1444.66,-1231.76 1442.32,-1227.34 1442.32,-1227.34 1442.32,-1227.34 1444.66,-1231.76 1438.34,-1229.45 1447,-1236.18 1447,-1236.18"/>
</g>
<!-- Addition -->
<g id="node9" class="node"><title>Addition</title>
<path fill="none" stroke="black" d="M1924,-1280.5C1924,-1280.5 2162,-1280.5 2162,-1280.5 2168,-1280.5 2174,-1286.5 2174,-1292.5 2174,-1292.5 2174,-1419.5 2174,-1419.5 2174,-1425.5 2168,-1431.5 2162,-1431.5 2162,-1431.5 1924,-1431.5 1924,-1431.5 1918,-1431.5 1912,-1425.5 1912,-1419.5 1912,-1419.5 1912,-1292.5 1912,-1292.5 1912,-1286.5 1918,-1280.5 1924,-1280.5"/>
<text text-anchor="middle" x="2043" y="-1416.3" font-family="Times,serif" font-size="14.00">Addition</text>
<polyline fill="none" stroke="black" points="1912,-1408.5 2174,-1408.5 "/>
<text text-anchor="start" x="1920" y="-1393.3" font-family="Times,serif" font-size="14.00">id :integer</text>
<text text-anchor="start" x="1920" y="-1378.3" font-family="Times,serif" font-size="14.00">purchase_date :timestamp without time zone</text>
<text text-anchor="start" x="1920" y="-1363.3" font-family="Times,serif" font-size="14.00">base_price :double precision</text>
<text text-anchor="start" x="1920" y="-1348.3" font-family="Times,serif" font-size="14.00">discount_id :integer</text>
<text text-anchor="start" x="1920" y="-1333.3" font-family="Times,serif" font-size="14.00">profile_id :integer</text>
<text text-anchor="start" x="1920" y="-1318.3" font-family="Times,serif" font-size="14.00">story_id :integer</text>
<text text-anchor="start" x="1920" y="-1303.3" font-family="Times,serif" font-size="14.00">created_at :timestamp without time zone</text>
<text text-anchor="start" x="1920" y="-1288.3" font-family="Times,serif" font-size="14.00">updated_at :timestamp without time zone</text>
</g>
<!-- Report -->
<g id="node10" class="node"><title>Report</title>
<path fill="none" stroke="black" d="M1632,-638.5C1632,-638.5 1852,-638.5 1852,-638.5 1858,-638.5 1864,-644.5 1864,-650.5 1864,-650.5 1864,-777.5 1864,-777.5 1864,-783.5 1858,-789.5 1852,-789.5 1852,-789.5 1632,-789.5 1632,-789.5 1626,-789.5 1620,-783.5 1620,-777.5 1620,-777.5 1620,-650.5 1620,-650.5 1620,-644.5 1626,-638.5 1632,-638.5"/>
<text text-anchor="middle" x="1742" y="-774.3" font-family="Times,serif" font-size="14.00">Report</text>
<polyline fill="none" stroke="black" points="1620,-766.5 1864,-766.5 "/>
<text text-anchor="start" x="1628" y="-751.3" font-family="Times,serif" font-size="14.00">id :integer</text>
<text text-anchor="start" x="1628" y="-736.3" font-family="Times,serif" font-size="14.00">user_id :integer</text>
<text text-anchor="start" x="1628" y="-721.3" font-family="Times,serif" font-size="14.00">title :character varying</text>
<text text-anchor="start" x="1628" y="-706.3" font-family="Times,serif" font-size="14.00">body :character varying</text>
<text text-anchor="start" x="1628" y="-691.3" font-family="Times,serif" font-size="14.00">status :character varying</text>
<text text-anchor="start" x="1628" y="-676.3" font-family="Times,serif" font-size="14.00">type :character varying</text>
<text text-anchor="start" x="1628" y="-661.3" font-family="Times,serif" font-size="14.00">created_at :timestamp without time zone</text>
<text text-anchor="start" x="1628" y="-646.3" font-family="Times,serif" font-size="14.00">updated_at :timestamp without time zone</text>
</g>
<!-- Chapter -->
<g id="node11" class="node"><title>Chapter</title>
<path fill="none" stroke="black" d="M438,-174.5C438,-174.5 658,-174.5 658,-174.5 664,-174.5 670,-180.5 670,-186.5 670,-186.5 670,-283.5 670,-283.5 670,-289.5 664,-295.5 658,-295.5 658,-295.5 438,-295.5 438,-295.5 432,-295.5 426,-289.5 426,-283.5 426,-283.5 426,-186.5 426,-186.5 426,-180.5 432,-174.5 438,-174.5"/>
<text text-anchor="middle" x="548" y="-280.3" font-family="Times,serif" font-size="14.00">Chapter</text>
<polyline fill="none" stroke="black" points="426,-272.5 670,-272.5 "/>
<text text-anchor="start" x="434" y="-257.3" font-family="Times,serif" font-size="14.00">id :integer</text>
<text text-anchor="start" x="434" y="-242.3" font-family="Times,serif" font-size="14.00">title :character varying</text>
<text text-anchor="start" x="434" y="-227.3" font-family="Times,serif" font-size="14.00">body :text</text>
<text text-anchor="start" x="434" y="-212.3" font-family="Times,serif" font-size="14.00">created_at :timestamp without time zone</text>
<text text-anchor="start" x="434" y="-197.3" font-family="Times,serif" font-size="14.00">updated_at :timestamp without time zone</text>
<text text-anchor="start" x="434" y="-182.3" font-family="Times,serif" font-size="14.00">story_id :integer</text>
</g>
<!-- Chapter&#45;&gt;Option -->
<g id="edge7" class="edge"><title>Chapter&#45;&gt;Option</title>
<path fill="none" stroke="#945bbc" d="M504.512,-166.539C503.165,-163.045 501.979,-159.522 501,-156 498.724,-147.814 498.832,-139.496 500.53,-131.365"/>
<ellipse fill="none" stroke="#945bbc" cx="506.152" cy="-170.443" rx="4.00002" ry="4.00002"/>
<polygon fill="#945bbc" stroke="#945bbc" points="500.585,-131.174 507.665,-122.799 501.962,-126.367 503.338,-121.56 503.338,-121.56 503.338,-121.56 501.962,-126.367 499.012,-120.321 500.585,-131.174 500.585,-131.174"/>
<text text-anchor="middle" x="538" y="-144.3" font-family="Times,serif" font-size="14.00">child_options</text>
</g>
<!-- Chapter&#45;&gt;Option -->
<g id="edge8" class="edge"><title>Chapter&#45;&gt;Option</title>
<path fill="none" stroke="#fc7e58" d="M572.841,-166.655C573.678,-163.079 574.409,-159.513 575,-156 576.341,-148.024 576.249,-139.762 575.21,-131.597"/>
<ellipse fill="none" stroke="#fc7e58" cx="571.835" cy="-170.606" rx="4.00001" ry="4.00001"/>
<polygon fill="#fc7e58" stroke="#fc7e58" points="575.204,-131.564 577.94,-120.945 574.355,-126.637 573.505,-121.71 573.505,-121.71 573.505,-121.71 574.355,-126.637 569.07,-122.474 575.204,-131.564 575.204,-131.564"/>
<text text-anchor="middle" x="616.5" y="-144.3" font-family="Times,serif" font-size="14.00">parent_options</text>
</g>
<!-- UserGroup -->
<g id="node12" class="node"><title>UserGroup</title>
<path fill="none" stroke="black" d="M540,-1288C540,-1288 760,-1288 760,-1288 766,-1288 772,-1294 772,-1300 772,-1300 772,-1412 772,-1412 772,-1418 766,-1424 760,-1424 760,-1424 540,-1424 540,-1424 534,-1424 528,-1418 528,-1412 528,-1412 528,-1300 528,-1300 528,-1294 534,-1288 540,-1288"/>
<text text-anchor="middle" x="650" y="-1408.8" font-family="Times,serif" font-size="14.00">UserGroup</text>
<polyline fill="none" stroke="black" points="528,-1401 772,-1401 "/>
<text text-anchor="start" x="536" y="-1385.8" font-family="Times,serif" font-size="14.00">id :integer</text>
<text text-anchor="start" x="536" y="-1370.8" font-family="Times,serif" font-size="14.00">name :character varying</text>
<text text-anchor="start" x="536" y="-1355.8" font-family="Times,serif" font-size="14.00">code :character varying</text>
<text text-anchor="start" x="536" y="-1340.8" font-family="Times,serif" font-size="14.00">discount_user_group_id :integer</text>
<text text-anchor="start" x="536" y="-1325.8" font-family="Times,serif" font-size="14.00">actor_user_group_id :integer</text>
<text text-anchor="start" x="536" y="-1310.8" font-family="Times,serif" font-size="14.00">created_at :timestamp without time zone</text>
<text text-anchor="start" x="536" y="-1295.8" font-family="Times,serif" font-size="14.00">updated_at :timestamp without time zone</text>
</g>
<!-- UserGroup&#45;&gt;DiscountUserGroup -->
<g id="edge10" class="edge"><title>UserGroup&#45;&gt;DiscountUserGroup</title>
<path fill="none" stroke="#e6fa15" d="M649.989,-1279.72C648.751,-1157.24 640.926,-921.343 600,-850 588.299,-829.603 547.944,-799.371 507.801,-772.683"/>
<ellipse fill="none" stroke="#e6fa15" cx="650.027" cy="-1283.98" rx="4" ry="4"/>
<polygon fill="#e6fa15" stroke="#e6fa15" points="507.598,-772.55 501.725,-763.29 503.423,-769.799 499.249,-767.047 499.249,-767.047 499.249,-767.047 503.423,-769.799 496.772,-770.805 507.598,-772.55 507.598,-772.55"/>
</g>
<!-- UserGroup&#45;&gt;User -->
<g id="edge9" class="edge"><title>UserGroup&#45;&gt;User</title>
<path fill="none" stroke="#0ce50f" d="M781.539,-1295.21C893.791,-1244.19 1055.8,-1170.55 1176.96,-1115.47"/>
<polygon fill="#0ce50f" stroke="#0ce50f" points="781.403,-1295.27 770.437,-1295.31 776.851,-1297.34 772.299,-1299.41 772.299,-1299.41 772.299,-1299.41 776.851,-1297.34 774.161,-1303.51 781.403,-1295.27 781.403,-1295.27"/>
<polygon fill="#0ce50f" stroke="#0ce50f" points="1177.24,-1115.34 1188.21,-1115.3 1181.8,-1113.27 1186.35,-1111.21 1186.35,-1111.21 1186.35,-1111.21 1181.8,-1113.27 1184.48,-1107.11 1177.24,-1115.34 1177.24,-1115.34"/>
</g>
<!-- Discount -->
<g id="node18" class="node"><title>Discount</title>
<path fill="none" stroke="black" d="M359,-963.5C359,-963.5 579,-963.5 579,-963.5 585,-963.5 591,-969.5 591,-975.5 591,-975.5 591,-1102.5 591,-1102.5 591,-1108.5 585,-1114.5 579,-1114.5 579,-1114.5 359,-1114.5 359,-1114.5 353,-1114.5 347,-1108.5 347,-1102.5 347,-1102.5 347,-975.5 347,-975.5 347,-969.5 353,-963.5 359,-963.5"/>
<text text-anchor="middle" x="469" y="-1099.3" font-family="Times,serif" font-size="14.00">Discount</text>
<polyline fill="none" stroke="black" points="347,-1091.5 591,-1091.5 "/>
<text text-anchor="start" x="355" y="-1076.3" font-family="Times,serif" font-size="14.00">id :integer</text>
<text text-anchor="start" x="355" y="-1061.3" font-family="Times,serif" font-size="14.00">code :character varying</text>
<text text-anchor="start" x="355" y="-1046.3" font-family="Times,serif" font-size="14.00">title :character varying</text>
<text text-anchor="start" x="355" y="-1031.3" font-family="Times,serif" font-size="14.00">description :character varying</text>
<text text-anchor="start" x="355" y="-1016.3" font-family="Times,serif" font-size="14.00">amount :double precision</text>
<text text-anchor="start" x="355" y="-1001.3" font-family="Times,serif" font-size="14.00">created_at :timestamp without time zone</text>
<text text-anchor="start" x="355" y="-986.3" font-family="Times,serif" font-size="14.00">updated_at :timestamp without time zone</text>
<text text-anchor="start" x="355" y="-971.3" font-family="Times,serif" font-size="14.00">used :boolean</text>
</g>
<!-- UserGroup&#45;&gt;Discount -->
<g id="edge11" class="edge"><title>UserGroup&#45;&gt;Discount</title>
<path fill="none" stroke="#5b0f92" d="M606.326,-1278.99C579.332,-1232.01 544.668,-1171.69 516.921,-1123.4"/>
<polygon fill="#5b0f92" stroke="#5b0f92" points="606.411,-1279.14 607.491,-1290.05 608.902,-1283.48 611.393,-1287.81 611.393,-1287.81 611.393,-1287.81 608.902,-1283.48 615.295,-1285.57 606.411,-1279.14 606.411,-1279.14"/>
<polygon fill="#5b0f92" stroke="#5b0f92" points="516.806,-1123.2 515.725,-1112.29 514.315,-1118.86 511.823,-1114.53 511.823,-1114.53 511.823,-1114.53 514.315,-1118.86 507.922,-1116.77 516.806,-1123.2 516.806,-1123.2"/>
</g>
<!-- ActorUserGroup -->
<g id="node19" class="node"><title>ActorUserGroup</title>
<path fill="none" stroke="black" d="M566,-661C566,-661 786,-661 786,-661 792,-661 798,-667 798,-673 798,-673 798,-755 798,-755 798,-761 792,-767 786,-767 786,-767 566,-767 566,-767 560,-767 554,-761 554,-755 554,-755 554,-673 554,-673 554,-667 560,-661 566,-661"/>
<text text-anchor="middle" x="676" y="-751.8" font-family="Times,serif" font-size="14.00">ActorUserGroup</text>
<polyline fill="none" stroke="black" points="554,-744 798,-744 "/>
<text text-anchor="start" x="562" y="-728.8" font-family="Times,serif" font-size="14.00">id :integer</text>
<text text-anchor="start" x="562" y="-713.8" font-family="Times,serif" font-size="14.00">user_id :integer</text>
<text text-anchor="start" x="562" y="-698.8" font-family="Times,serif" font-size="14.00">usergroup_id :integer</text>
<text text-anchor="start" x="562" y="-683.8" font-family="Times,serif" font-size="14.00">created_at :timestamp without time zone</text>
<text text-anchor="start" x="562" y="-668.8" font-family="Times,serif" font-size="14.00">updated_at :timestamp without time zone</text>
</g>
<!-- UserGroup&#45;&gt;ActorUserGroup -->
<g id="edge12" class="edge"><title>UserGroup&#45;&gt;ActorUserGroup</title>
<path fill="none" stroke="#e35a6e" d="M653.061,-1279.65C658.244,-1152.07 668.651,-895.901 673.458,-777.562"/>
<ellipse fill="none" stroke="#e35a6e" cx="652.896" cy="-1283.72" rx="4" ry="4"/>
<polygon fill="#e35a6e" stroke="#e35a6e" points="673.472,-777.222 678.374,-767.413 673.675,-772.227 673.878,-767.231 673.878,-767.231 673.878,-767.231 673.675,-772.227 669.382,-767.048 673.472,-777.222 673.472,-777.222"/>
</g>
<!-- Story&#45;&gt;StoryCategory -->
<g id="edge14" class="edge"><title>Story&#45;&gt;StoryCategory</title>
<path fill="none" stroke="#5661c9" d="M400.391,-357.095C369.795,-335.351 338.634,-313.205 311.471,-293.9"/>
<ellipse fill="none" stroke="#5661c9" cx="403.871" cy="-359.569" rx="4.00002" ry="4.00002"/>
<polygon fill="#5661c9" stroke="#5661c9" points="311.325,-293.797 305.781,-284.336 307.249,-290.901 303.174,-288.004 303.174,-288.004 303.174,-288.004 307.249,-290.901 300.567,-291.672 311.325,-293.797 311.325,-293.797"/>
</g>
<!-- Story&#45;&gt;Chapter -->
<g id="edge13" class="edge"><title>Story&#45;&gt;Chapter</title>
<path fill="none" stroke="#40962f" d="M548,-326.521C548,-319.46 548,-312.521 548,-305.82"/>
<ellipse fill="none" stroke="#40962f" cx="548" cy="-330.798" rx="4" ry="4"/>
<polygon fill="#40962f" stroke="#40962f" points="548,-305.504 552.5,-295.503 548,-300.504 548,-295.504 548,-295.504 548,-295.504 548,-300.504 543.5,-295.504 548,-305.504 548,-305.504"/>
</g>
<!-- Story&#45;&gt;Comment -->
<g id="edge15" class="edge"><title>Story&#45;&gt;Comment</title>
<path fill="none" stroke="#1060a1" d="M674.307,-328.61C699.612,-301.887 723.426,-276.737 739.834,-259.409"/>
<ellipse fill="none" stroke="#1060a1" cx="671.198" cy="-331.894" rx="4.00002" ry="4.00002"/>
<polygon fill="#1060a1" stroke="#1060a1" points="739.954,-259.282 750.098,-255.115 743.392,-255.651 746.83,-252.021 746.83,-252.021 746.83,-252.021 743.392,-255.651 743.562,-248.927 739.954,-259.282 739.954,-259.282"/>
</g>
<!-- User&#45;&gt;Profile -->
<g id="edge19" class="edge"><title>User&#45;&gt;Profile</title>
<path fill="none" stroke="#5e8e29" d="M1180.11,-908.092C1135.56,-872.558 1088.34,-834.899 1047.55,-802.366"/>
<ellipse fill="none" stroke="#5e8e29" cx="1183.29" cy="-910.626" rx="4.00002" ry="4.00002"/>
<ellipse fill="#5e8e29" stroke="#5e8e29" cx="1044.18" cy="-799.684" rx="4.00002" ry="4.00002"/>
</g>
<!-- User&#45;&gt;Friendship -->
<g id="edge20" class="edge"><title>User&#45;&gt;Friendship</title>
<path fill="none" stroke="#57f8a7" d="M1505.27,-898.752C1530.89,-868.363 1553.64,-834.321 1568,-798 1602.39,-711.024 1577.01,-602.323 1553.13,-533.013"/>
<ellipse fill="none" stroke="#57f8a7" cx="1502.36" cy="-902.144" rx="4.00002" ry="4.00002"/>
<polygon fill="#57f8a7" stroke="#57f8a7" points="1553.1,-532.932 1554.02,-522.005 1551.44,-528.216 1549.78,-523.501 1549.78,-523.501 1549.78,-523.501 1551.44,-528.216 1545.53,-524.997 1553.1,-532.932 1553.1,-532.932"/>
</g>
<!-- User&#45;&gt;Friendship -->
<g id="edge22" class="edge"><title>User&#45;&gt;Friendship</title>
<path fill="none" stroke="#e7b003" d="M1418.04,-842.876C1422.77,-827.797 1427.16,-812.718 1431,-798 1450.11,-724.828 1437.72,-702.855 1458,-630 1467.1,-597.31 1480.62,-562.309 1493.14,-532.915"/>
<ellipse fill="none" stroke="#e7b003" cx="1416.75" cy="-846.947" rx="4.00001" ry="4.00001"/>
<polygon fill="#e7b003" stroke="#e7b003" points="1493.21,-532.762 1501.3,-525.359 1495.19,-528.17 1497.17,-523.578 1497.17,-523.578 1497.17,-523.578 1495.19,-528.17 1493.03,-521.797 1493.21,-532.762 1493.21,-532.762"/>
<text text-anchor="middle" x="1511" y="-710.3" font-family="Times,serif" font-size="14.00">inverse_friendships</text>
</g>
<!-- User&#45;&gt;Report -->
<g id="edge18" class="edge"><title>User&#45;&gt;Report</title>
<path fill="none" stroke="#21b7e6" d="M1506.32,-911.962C1539.53,-885.806 1574.06,-858.223 1606,-832 1619.91,-820.577 1634.48,-808.348 1648.69,-796.26"/>
<ellipse fill="none" stroke="#21b7e6" cx="1502.84" cy="-914.699" rx="4.00002" ry="4.00002"/>
<polygon fill="#21b7e6" stroke="#21b7e6" points="1648.93,-796.053 1659.46,-792.988 1652.73,-792.808 1656.54,-789.564 1656.54,-789.564 1656.54,-789.564 1652.73,-792.808 1653.62,-786.14 1648.93,-796.053 1648.93,-796.053"/>
</g>
<!-- User&#45;&gt;User -->
<g id="edge21" class="edge"><title>User&#45;&gt;User</title>
<path fill="none" stroke="#5e5e08" d="M1509.16,-1049.59C1514.16,-1046.71 1517,-1043.18 1517,-1039 1517,-1034.82 1514.16,-1031.29 1509.16,-1028.41"/>
<polygon fill="#5e5e08" stroke="#5e5e08" points="1508.83,-1049.72 1497.87,-1049.41 1504.21,-1051.64 1499.6,-1053.57 1499.6,-1053.57 1499.6,-1053.57 1504.21,-1051.64 1501.32,-1057.72 1508.83,-1049.72 1508.83,-1049.72"/>
<polygon fill="#5e5e08" stroke="#5e5e08" points="1508.83,-1028.28 1501.32,-1020.28 1504.21,-1026.36 1499.6,-1024.43 1499.6,-1024.43 1499.6,-1024.43 1504.21,-1026.36 1497.87,-1028.59 1508.83,-1028.28 1508.83,-1028.28"/>
<text text-anchor="middle" x="1536" y="-1035.3" font-family="Times,serif" font-size="14.00">friends</text>
</g>
<!-- User&#45;&gt;User -->
<g id="edge23" class="edge"><title>User&#45;&gt;User</title>
<path fill="none" stroke="#b88fa0" d="M1509.85,-1075.66C1536.55,-1070.11 1555,-1057.89 1555,-1039 1555,-1020.11 1536.55,-1007.89 1509.85,-1002.34"/>
<polygon fill="#b88fa0" stroke="#b88fa0" points="1509.52,-1075.72 1498.9,-1072.97 1504.59,-1076.56 1499.66,-1077.41 1499.66,-1077.41 1499.66,-1077.41 1504.59,-1076.56 1500.42,-1081.84 1509.52,-1075.72 1509.52,-1075.72"/>
<polygon fill="#b88fa0" stroke="#b88fa0" points="1509.52,-1002.28 1500.42,-996.159 1504.59,-1001.44 1499.66,-1000.59 1499.66,-1000.59 1499.66,-1000.59 1504.59,-1001.44 1498.9,-1005.03 1509.52,-1002.28 1509.52,-1002.28"/>
<text text-anchor="middle" x="1597" y="-1035.3" font-family="Times,serif" font-size="14.00">inverse_friends</text>
</g>
<!-- User&#45;&gt;ActorUserGroup -->
<g id="edge24" class="edge"><title>User&#45;&gt;ActorUserGroup</title>
<path fill="none" stroke="#d25b10" d="M1178.55,-971.615C1070.96,-926.431 928.379,-863.191 807,-798 792.427,-790.173 777.303,-781.322 762.732,-772.389"/>
<ellipse fill="none" stroke="#d25b10" cx="1182.54" cy="-973.29" rx="4.00001" ry="4.00001"/>
<polygon fill="#d25b10" stroke="#d25b10" points="762.73,-772.388 756.592,-763.3 758.477,-769.758 754.225,-767.128 754.225,-767.128 754.225,-767.128 758.477,-769.758 751.858,-770.955 762.73,-772.388 762.73,-772.388"/>
</g>
<!-- Mailboxer::Message -->
<g id="node21" class="node"><title>Mailboxer::Message</title>
<ellipse fill="none" stroke="black" cx="1162" cy="-714" rx="83.2649" ry="18"/>
<text text-anchor="middle" x="1162" y="-710.3" font-family="Times,serif" font-size="14.00">Mailboxer::Message</text>
</g>
<!-- User&#45;&gt;Mailboxer::Message -->
<g id="edge16" class="edge"><title>User&#45;&gt;Mailboxer::Message</title>
<path fill="none" stroke="#d539b6" d="M1233.97,-843.428C1211.09,-802.604 1189.86,-764.726 1176.48,-740.841"/>
<ellipse fill="none" stroke="#d539b6" cx="1236.02" cy="-847.088" rx="4.00002" ry="4.00002"/>
<polygon fill="#d539b6" stroke="#d539b6" points="1176.47,-740.819 1175.51,-729.895 1174.02,-736.457 1171.58,-732.095 1171.58,-732.095 1171.58,-732.095 1174.02,-736.457 1167.65,-734.295 1176.47,-740.819 1176.47,-740.819"/>
<text text-anchor="middle" x="1251" y="-820.3" font-family="Times,serif" font-size="14.00">messages</text>
</g>
<!-- Mailboxer::Receipt -->
<g id="node22" class="node"><title>Mailboxer::Receipt</title>
<ellipse fill="none" stroke="black" cx="1343" cy="-714" rx="78.9404" ry="18"/>
<text text-anchor="middle" x="1343" y="-710.3" font-family="Times,serif" font-size="14.00">Mailboxer::Receipt</text>
</g>
<!-- User&#45;&gt;Mailboxer::Receipt -->
<g id="edge17" class="edge"><title>User&#45;&gt;Mailboxer::Receipt</title>
<path fill="none" stroke="#fd7612" d="M1343,-842.574C1343,-802.939 1343,-766.16 1343,-742.377"/>
<ellipse fill="none" stroke="#fd7612" cx="1343" cy="-846.577" rx="4" ry="4"/>
<polygon fill="#fd7612" stroke="#fd7612" points="1343,-742.095 1347.5,-732.095 1343,-737.095 1343,-732.095 1343,-732.095 1343,-732.095 1343,-737.095 1338.5,-732.095 1343,-742.095 1343,-742.095"/>
<text text-anchor="middle" x="1364.5" y="-820.3" font-family="Times,serif" font-size="14.00">receipts</text>
</g>
<!-- RequestFriendship -->
<g id="node15" class="node"><title>RequestFriendship</title>
<path fill="none" stroke="black" d="M1662,-1288C1662,-1288 1882,-1288 1882,-1288 1888,-1288 1894,-1294 1894,-1300 1894,-1300 1894,-1412 1894,-1412 1894,-1418 1888,-1424 1882,-1424 1882,-1424 1662,-1424 1662,-1424 1656,-1424 1650,-1418 1650,-1412 1650,-1412 1650,-1300 1650,-1300 1650,-1294 1656,-1288 1662,-1288"/>
<text text-anchor="middle" x="1772" y="-1408.8" font-family="Times,serif" font-size="14.00">RequestFriendship</text>
<polyline fill="none" stroke="black" points="1650,-1401 1894,-1401 "/>
<text text-anchor="start" x="1658" y="-1385.8" font-family="Times,serif" font-size="14.00">id :integer</text>
<text text-anchor="start" x="1658" y="-1370.8" font-family="Times,serif" font-size="14.00">sender_id :integer</text>
<text text-anchor="start" x="1658" y="-1355.8" font-family="Times,serif" font-size="14.00">recipient_id :integer</text>
<text text-anchor="start" x="1658" y="-1340.8" font-family="Times,serif" font-size="14.00">message :text</text>
<text text-anchor="start" x="1658" y="-1325.8" font-family="Times,serif" font-size="14.00">status :character varying</text>
<text text-anchor="start" x="1658" y="-1310.8" font-family="Times,serif" font-size="14.00">created_at :timestamp without time zone</text>
<text text-anchor="start" x="1658" y="-1295.8" font-family="Times,serif" font-size="14.00">updated_at :timestamp without time zone</text>
</g>
<!-- RequestFriendship&#45;&gt;Friendship -->
<g id="edge27" class="edge"><title>RequestFriendship&#45;&gt;Friendship</title>
<path fill="none" stroke="#6f6232" d="M1812.13,-1280.55C1881.21,-1141.19 2003.24,-836.428 1873,-630 1825.73,-555.08 1734.33,-513.258 1657.07,-490.336"/>
<ellipse fill="none" stroke="#6f6232" cx="1810.26" cy="-1284.29" rx="4.00002" ry="4.00002"/>
<polygon fill="#6f6232" stroke="#6f6232" points="1656.84,-490.271 1648.48,-483.174 1652.04,-488.884 1647.23,-487.497 1647.23,-487.497 1647.23,-487.497 1652.04,-488.884 1645.98,-491.821 1656.84,-490.271 1656.84,-490.271"/>
</g>
<!-- RequestFriendship&#45;&gt;User -->
<g id="edge25" class="edge"><title>RequestFriendship&#45;&gt;User</title>
<path fill="none" stroke="#df4ad0" d="M1673.96,-1283.01C1624.35,-1246.59 1562.82,-1201.41 1506.32,-1159.92"/>
<ellipse fill="none" stroke="#df4ad0" cx="1677.27" cy="-1285.44" rx="4.00002" ry="4.00002"/>
<ellipse fill="#df4ad0" stroke="#df4ad0" cx="1503.04" cy="-1157.51" rx="4.00002" ry="4.00002"/>
<text text-anchor="middle" x="1663" y="-1250.3" font-family="Times,serif" font-size="14.00">sender</text>
</g>
<!-- RequestFriendship&#45;&gt;User -->
<g id="edge26" class="edge"><title>RequestFriendship&#45;&gt;User</title>
<path fill="none" stroke="#df688a" d="M1719.52,-1281.75C1708.83,-1269.11 1697.13,-1256.63 1685,-1246 1631.65,-1199.24 1566.3,-1156.95 1507.07,-1123.02"/>
<ellipse fill="none" stroke="#df688a" cx="1722.12" cy="-1284.88" rx="4.00002" ry="4.00002"/>
<ellipse fill="#df688a" stroke="#df688a" cx="1503.36" cy="-1120.91" rx="4.00002" ry="4.00002"/>
<text text-anchor="middle" x="1725" y="-1250.3" font-family="Times,serif" font-size="14.00">recipient</text>
</g>
<!-- PremiumUser -->
<g id="node16" class="node"><title>PremiumUser</title>
<path fill="none" stroke="black" d="M876,-1318C876,-1318 1096,-1318 1096,-1318 1102,-1318 1108,-1324 1108,-1330 1108,-1330 1108,-1382 1108,-1382 1108,-1388 1102,-1394 1096,-1394 1096,-1394 876,-1394 876,-1394 870,-1394 864,-1388 864,-1382 864,-1382 864,-1330 864,-1330 864,-1324 870,-1318 876,-1318"/>
<text text-anchor="middle" x="986" y="-1378.8" font-family="Times,serif" font-size="14.00">PremiumUser</text>
<polyline fill="none" stroke="black" points="864,-1371 1108,-1371 "/>
<text text-anchor="start" x="872" y="-1355.8" font-family="Times,serif" font-size="14.00">id :integer</text>
<text text-anchor="start" x="872" y="-1340.8" font-family="Times,serif" font-size="14.00">created_at :timestamp without time zone</text>
<text text-anchor="start" x="872" y="-1325.8" font-family="Times,serif" font-size="14.00">updated_at :timestamp without time zone</text>
</g>
<!-- PremiumUser&#45;&gt;User -->
<g id="edge28" class="edge"><title>PremiumUser&#45;&gt;User</title>
<path fill="none" stroke="#6a74e4" d="M1034.15,-1312.52C1071.62,-1279.46 1125.93,-1231.53 1178.6,-1185.06"/>
<ellipse fill="none" stroke="#6a74e4" cx="1031" cy="-1315.29" rx="4.00002" ry="4.00002"/>
<polygon fill="#6a74e4" stroke="#6a74e4" points="1178.86,-1184.83 1189.34,-1181.59 1182.61,-1181.52 1186.36,-1178.21 1186.36,-1178.21 1186.36,-1178.21 1182.61,-1181.52 1183.38,-1174.84 1178.86,-1184.83 1178.86,-1184.83"/>
</g>
<!-- FreeUser -->
<g id="node17" class="node"><title>FreeUser</title>
<path fill="none" stroke="black" d="M1138,-1318C1138,-1318 1358,-1318 1358,-1318 1364,-1318 1370,-1324 1370,-1330 1370,-1330 1370,-1382 1370,-1382 1370,-1388 1364,-1394 1358,-1394 1358,-1394 1138,-1394 1138,-1394 1132,-1394 1126,-1388 1126,-1382 1126,-1382 1126,-1330 1126,-1330 1126,-1324 1132,-1318 1138,-1318"/>
<text text-anchor="middle" x="1248" y="-1378.8" font-family="Times,serif" font-size="14.00">FreeUser</text>
<polyline fill="none" stroke="black" points="1126,-1371 1370,-1371 "/>
<text text-anchor="start" x="1134" y="-1355.8" font-family="Times,serif" font-size="14.00">id :integer</text>
<text text-anchor="start" x="1134" y="-1340.8" font-family="Times,serif" font-size="14.00">created_at :timestamp without time zone</text>
<text text-anchor="start" x="1134" y="-1325.8" font-family="Times,serif" font-size="14.00">updated_at :timestamp without time zone</text>
</g>
<!-- FreeUser&#45;&gt;User -->
<g id="edge29" class="edge"><title>FreeUser&#45;&gt;User</title>
<path fill="none" stroke="#a12288" d="M1261.51,-1310.19C1267.64,-1289.87 1275.35,-1264.3 1283.57,-1237.05"/>
<ellipse fill="none" stroke="#a12288" cx="1260.33" cy="-1314.11" rx="4.00001" ry="4.00001"/>
<polygon fill="#a12288" stroke="#a12288" points="1283.61,-1236.92 1290.81,-1228.64 1285.06,-1232.13 1286.5,-1227.34 1286.5,-1227.34 1286.5,-1227.34 1285.06,-1232.13 1282.19,-1226.04 1283.61,-1236.92 1283.61,-1236.92"/>
</g>
<!-- Discount&#45;&gt;DiscountUserGroup -->
<g id="edge30" class="edge"><title>Discount&#45;&gt;DiscountUserGroup</title>
<path fill="none" stroke="#5c0987" d="M454.913,-955.274C445.49,-899.932 433.284,-828.248 424.664,-777.628"/>
<ellipse fill="none" stroke="#5c0987" cx="455.641" cy="-959.548" rx="4.00001" ry="4.00001"/>
<polygon fill="#5c0987" stroke="#5c0987" points="424.615,-777.336 427.372,-766.723 423.775,-772.407 422.936,-767.478 422.936,-767.478 422.936,-767.478 423.775,-772.407 418.5,-768.233 424.615,-777.336 424.615,-777.336"/>
</g>
</g>
</svg>
